<svg data-name="Layer 1" viewBox="0 0 32 32" xmlns="http://www.w3.org/2000/svg"><path d="M29.81 4.42a1 1 0 0 0-1.26-.31l-1.31.65.65-1.31a1 1 0 0 0-1.6-1.16l-4 4A1 1 0 0 0 22 7v1.59l-6.71 6.7a1 1 0 0 0 0 1.42 1 1 0 0 0 1.42 0l6.7-6.71H25a1 1 0 0 0 .71-.29l4-4a1 1 0 0 0 .1-1.29Z" fill="#000000" class="fill-4d4d4d"></path><path d="M13.09 15.29a2.38 2.38 0 0 1 .15-.45.08.08 0 0 1 0-.05 2.83 2.83 0 0 1 .62-.91l2.81-2.81A5.2 5.2 0 0 0 16 11a5 5 0 1 0 5 5 5.2 5.2 0 0 0-.07-.69l-2.81 2.81a2.9 2.9 0 0 1-.9.62h-.06a2.38 2.38 0 0 1-.45.15h-.11a3 3 0 0 1-1.2 0h-.11a2.38 2.38 0 0 1-.45-.15h-.05a3 3 0 0 1-1.53-1.53.08.08 0 0 1 0-.05 2.38 2.38 0 0 1-.15-.45v-.11a3 3 0 0 1 0-1.2Z" fill="#000000" class="fill-4d4d4d"></path><path d="M19.87 7.89A8.8 8.8 0 0 0 16 7a9 9 0 1 0 9 9 8.8 8.8 0 0 0-.89-3.87l-1.52 1.53a7 7 0 1 1-4.25-4.25Z" fill="#000000" class="fill-4d4d4d"></path><path d="M27.12 11.12a3 3 0 0 1-1 .65A10.83 10.83 0 0 1 27 16 11 11 0 1 1 16 5a10.83 10.83 0 0 1 4.23.85 3 3 0 0 1 .65-1l.63-.64A12.86 12.86 0 0 0 16 3a13 13 0 1 0 13 13 12.86 12.86 0 0 0-1.24-5.51Z" fill="#000000" class="fill-4d4d4d"></path></svg>